<?xml version="1.0" encoding="UTF-8" standalone="no"?>
<svg
   xmlns:dc="http://purl.org/dc/elements/1.1/"
   xmlns:cc="http://creativecommons.org/ns#"
   xmlns:rdf="http://www.w3.org/1999/02/22-rdf-syntax-ns#"
   xmlns:svg="http://www.w3.org/2000/svg"
   xmlns="http://www.w3.org/2000/svg"
   xmlns:sodipodi="http://sodipodi.sourceforge.net/DTD/sodipodi-0.dtd"
   xmlns:inkscape="http://www.inkscape.org/namespaces/inkscape"
   width="105.89815mm"
   height="105.93706mm"
   viewBox="0 0 105.89815 105.93705"
   version="1.1"
   id="svg8"
   inkscape:version="1.0.1 (0767f8302a, 2020-10-17)"
   sodipodi:docname="weight.svg">
  <defs
     id="defs2" />
  <sodipodi:namedview
     id="base"
     pagecolor="#ffffff"
     bordercolor="#666666"
     borderopacity="1.0"
     inkscape:pageopacity="0.0"
     inkscape:pageshadow="2"
     inkscape:zoom="0.45254834"
     inkscape:cx="516.16762"
     inkscape:cy="491.13253"
     inkscape:document-units="mm"
     inkscape:current-layer="layer1"
     inkscape:document-rotation="0"
     showgrid="false"
     fit-margin-top="12"
     fit-margin-left="12"
     fit-margin-right="12"
     fit-margin-bottom="12"
     showborder="true"
     inkscape:window-width="1280"
     inkscape:window-height="926"
     inkscape:window-x="0"
     inkscape:window-y="27"
     inkscape:window-maximized="1"
     lock-margins="true" />
  <metadata
     id="metadata5">
    <rdf:RDF>
      <cc:Work
         rdf:about="">
        <dc:format>image/svg+xml</dc:format>
        <dc:type
           rdf:resource="http://purl.org/dc/dcmitype/StillImage" />
        <dc:title></dc:title>
      </cc:Work>
    </rdf:RDF>
  </metadata>
  <g
     inkscape:label="Слой 1"
     inkscape:groupmode="layer"
     id="layer1"
     transform="translate(-36.093754,-69.833523)">
    <path
       style="fill:#000000;stroke-width:0.196964"
       d="m 66.012708,161.85017 c 0.07171,-1.72211 0.148288,-2.04788 0.74165,-3.15504 0.789833,-1.47375 1.833847,-2.46571 3.33681,-3.17043 l 1.106939,-0.51904 6.253609,-0.0571 6.253608,-0.0571 V 124.56245 94.233406 L 82.08037,93.188947 c -4.47245,-2.87474 -6.434697,-3.745367 -9.24003,-4.099686 -1.557637,-0.196731 -2.407178,-0.178522 -5.389505,0.115536 -1.947218,0.191996 -3.567466,0.374813 -3.60055,0.406273 -0.03308,0.03141 2.825356,7.073829 6.35209,15.64973 3.526734,8.5759 6.412244,15.67899 6.412244,15.78466 0,0.10566 -0.278033,0.74354 -0.617849,1.41751 -2.073055,4.11159 -5.432147,7.18759 -9.328836,8.54265 -1.432539,0.49815 -1.826266,0.54794 -4.333209,0.54794 -2.503884,0 -2.902418,-0.0503 -4.333209,-0.54633 -2.241539,-0.7772 -4.08159,-1.93418 -5.816642,-3.65736 -2.255382,-2.23996 -4.259377,-5.43136 -4.07992,-6.49735 0.04746,-0.28189 2.891872,-7.31178 6.320929,-15.62197 3.429057,-8.310188 6.234648,-15.191142 6.234648,-15.291007 0,-0.09986 -0.578455,-0.218402 -1.285455,-0.263417 -1.069343,-0.06812 -1.37399,-0.170386 -1.812069,-0.608468 -0.679219,-0.679219 -0.713897,-1.705976 -0.08039,-2.380311 0.427194,-0.454728 0.582152,-0.47922 3.633986,-0.574388 1.75327,-0.05464 4.472955,-0.249377 6.043743,-0.432693 6.051567,-0.706227 9.902507,0.146206 14.969267,3.313574 l 1.477231,0.923452 0.110629,-2.121487 c 0.12895,-2.472829 0.445792,-3.259841 1.823705,-4.52996 0.8843,-0.815115 2.384808,-1.432322 3.482181,-1.432322 1.768016,0 3.882073,1.342685 4.792929,3.04409 0.385936,0.720899 0.432708,1.15057 0.491496,4.515368 l 0.06499,3.718649 1.018374,-0.124908 c 3.610051,-0.442802 5.997832,-0.540829 7.870572,-0.323113 3.53457,0.410911 5.37287,1.13761 11.14331,4.405052 2.17704,1.232718 4.35256,2.351702 4.8345,2.486637 1.13297,0.31721 1.77081,0.992992 1.77081,1.876152 0,1.37174 -1.38756,2.06548 -2.94604,1.47294 -0.46122,-0.17535 -0.51738,-0.15634 -0.43645,0.14772 0.0511,0.19194 2.8539,7.05463 6.22846,15.25042 3.37457,8.19579 6.13559,15.04569 6.13559,15.22201 0,1.07894 -2.51104,4.77353 -4.54444,6.68641 -2.76526,2.60135 -5.9452,3.86321 -9.73546,3.86321 -5.2067,0 -9.44432,-2.47789 -12.68834,-7.41936 -0.54782,-0.83447 -1.14297,-1.90195 -1.32255,-2.3722 l -0.32653,-0.85498 6.54232,-15.89157 c 3.59826,-8.74035 6.55828,-15.97705 6.57781,-16.08154 0.0481,-0.25716 -5.23771,-3.291521 -7.04273,-4.04295 -2.52045,-1.049268 -3.50935,-1.236991 -6.4138,-1.217517 -1.462459,0.0098 -3.545347,0.128631 -4.62865,0.26405 l -1.969646,0.246221 -0.04988,29.093586 -0.04988,29.09358 6.254256,0.0571 6.25427,0.0571 1.10693,0.51904 c 1.50297,0.70471 2.54698,1.69668 3.33681,3.17043 0.59337,1.10715 0.66995,1.43293 0.74165,3.15504 l 0.08,1.92039 H 89.023357 65.932744 Z m 41.722232,-1.78507 c 0,-0.21625 -0.98041,-1.11764 -1.51353,-1.39153 -0.30811,-0.1583 -5.18924,-0.22103 -17.198053,-0.22103 -12.008821,0 -16.88995,0.0627 -17.198065,0.22103 -0.533111,0.27389 -1.513523,1.17528 -1.513523,1.39153 0,0.0881 8.420212,0.16011 18.711588,0.16011 10.291364,0 18.711583,-0.0721 18.711583,-0.16011 z M 90.796033,120.71877 V 86.530361 L 90.22029,85.954618 c -0.774074,-0.774067 -1.6198,-0.774067 -2.393874,0 l -0.575736,0.575743 v 34.188409 34.18841 h 1.772677 1.772676 z m 27.746127,19.5239 c 1.96938,-0.52417 3.19646,-1.27192 4.90066,-2.98636 0.89372,-0.89908 1.62495,-1.72713 1.62495,-1.84012 0,-0.13969 -2.99547,-0.20541 -9.36272,-0.20541 -10.69306,0 -9.82811,-0.19928 -7.96815,1.83581 2.12305,2.32296 4.72378,3.4703 7.87659,3.47484 1.02914,0.001 2.34705,-0.12396 2.92867,-0.27876 z m 6.82955,-8.92193 c -0.68016,-1.77435 -9.46222,-23.03366 -9.56436,-23.1531 -0.0942,-0.11018 -8.23989,19.25541 -9.81226,23.32775 -0.0363,0.094 4.31045,0.17004 9.72155,0.17004 9.24017,0 9.77982,-0.0193 9.65507,-0.34469 z m -60.732352,-3.41673 c 2.379635,-0.4926 5.002132,-2.20329 6.423265,-4.18997 l 0.652371,-0.91199 h -9.37496 -9.374961 l 0.235448,0.44317 c 0.459771,0.8654 2.84942,3.0237 4.039548,3.64847 2.138987,1.12289 4.980943,1.51094 7.399289,1.01032 z m 7.391653,-8.89352 C 71.463039,117.54746 62.715054,96.382809 62.528576,96.020546 l -0.250583,-0.486805 -0.327995,0.782248 c -1.787384,4.262811 -9.364993,22.727291 -9.364993,22.819841 0,0.0665 4.396857,0.12087 9.770793,0.12087 7.736301,0 9.75089,-0.0513 9.675213,-0.24621 z"
       id="path847" />
  </g>
</svg>
